<svg xmlns="http://www.w3.org/2000/svg" xmlns:xlink="http://www.w3.org/1999/xlink" width="158" zoomAndPan="magnify" viewBox="0 0 118.5 48.75" height="65" preserveAspectRatio="xMidYMid meet" version="1.0"><defs><g/><clipPath id="f0c93022fd"><path d="M 1.761719 15 L 7 15 L 7 25 L 1.761719 25 Z M 1.761719 15 " clip-rule="nonzero"/></clipPath><clipPath id="deb41e4f4a"><path d="M 3 4 L 116.671875 4 L 116.671875 19 L 3 19 Z M 3 4 " clip-rule="nonzero"/></clipPath><clipPath id="61a6f81d16"><path d="M 1.761719 36 L 27 36 L 27 38.683594 L 1.761719 38.683594 Z M 1.761719 36 " clip-rule="nonzero"/></clipPath><clipPath id="a98e22611d"><path d="M 92 36 L 116.671875 36 L 116.671875 38.683594 L 92 38.683594 Z M 92 36 " clip-rule="nonzero"/></clipPath></defs><g clip-path="url(#f0c93022fd)"><path fill="#737373" d="M 6.265625 18.347656 L 1.839844 15.046875 L 1.839844 24.882812 C 1.886719 22.933594 3.355469 20.753906 6.265625 18.347656 Z M 6.265625 18.347656 " fill-opacity="1" fill-rule="evenodd"/></g><g clip-path="url(#deb41e4f4a)"><path fill="#f65519" d="M 86.714844 13.855469 C 77.75 7.046875 64.0625 3.882812 52.988281 4.457031 C 33.984375 5.441406 18.53125 15.300781 3.515625 13.097656 C 10.4375 27.726562 53.035156 -9.070312 84.695312 16.972656 C 95.195312 16.902344 105.789062 17.523438 116.472656 18.875 C 109.640625 15.460938 99.714844 13.761719 86.714844 13.855469 Z M 86.714844 13.855469 " fill-opacity="1" fill-rule="evenodd"/></g><path fill="#737373" d="M 33.25 13.214844 C 38.730469 11.769531 43.886719 10.945312 48.703125 10.714844 C 53.5625 10.507812 52.96875 11.105469 53.675781 15.277344 L 54.457031 9.222656 C 47.695312 8.445312 40.609375 9.773438 33.25 13.214844 Z M 33.25 13.214844 " fill-opacity="1" fill-rule="evenodd"/><path fill="#737373" d="M 62.894531 9.75 C 68.03125 11.058594 71.835938 13.144531 74.289062 16.03125 L 60.003906 17.820312 L 80.15625 17.820312 C 76.808594 13.855469 71.054688 11.171875 62.894531 9.75 Z M 62.894531 9.75 " fill-opacity="1" fill-rule="evenodd"/><g clip-path="url(#61a6f81d16)"><path fill="#737373" d="M 26.050781 38.707031 L 26.050781 36.414062 L 1.839844 37.5625 Z M 26.050781 38.707031 " fill-opacity="1" fill-rule="evenodd"/></g><g clip-path="url(#a98e22611d)"><path fill="#737373" d="M 92.261719 38.707031 L 116.472656 37.5625 L 92.261719 36.414062 Z M 92.261719 38.707031 " fill-opacity="1" fill-rule="evenodd"/></g><g fill="#f65519" fill-opacity="1"><g transform="translate(7.053385, 32.825675)"><g><path d="M 13.875 0 L 12.953125 0 L 12.640625 -0.65625 C 11.210938 -0.0507812 9.710938 0.25 8.140625 0.25 C 6.835938 0.25 5.65625 0.0234375 4.59375 -0.421875 C 3.53125 -0.867188 2.6875 -1.570312 2.0625 -2.53125 C 1.4375 -3.5 1.125 -4.757812 1.125 -6.3125 C 1.125 -7.882812 1.445312 -9.148438 2.09375 -10.109375 C 2.738281 -11.078125 3.601562 -11.785156 4.6875 -12.234375 C 5.78125 -12.679688 7.003906 -12.90625 8.359375 -12.90625 C 9.265625 -12.90625 10.15625 -12.8125 11.03125 -12.625 C 11.914062 -12.4375 12.753906 -12.160156 13.546875 -11.796875 L 13.0625 -10.25 C 11.582031 -10.925781 10.023438 -11.265625 8.390625 -11.265625 C 7.367188 -11.265625 6.4375 -11.097656 5.59375 -10.765625 C 4.757812 -10.429688 4.097656 -9.898438 3.609375 -9.171875 C 3.128906 -8.441406 2.890625 -7.488281 2.890625 -6.3125 C 2.890625 -5.144531 3.125 -4.191406 3.59375 -3.453125 C 4.0625 -2.722656 4.703125 -2.1875 5.515625 -1.84375 C 6.328125 -1.507812 7.222656 -1.34375 8.203125 -1.34375 C 9.628906 -1.34375 11 -1.632812 12.3125 -2.21875 L 12.3125 -5.609375 L 7.171875 -5.609375 L 7.171875 -7.046875 L 13.875 -7.046875 Z M 13.875 0 "/></g></g></g><g fill="#f65519" fill-opacity="1"><g transform="translate(24.467608, 32.825675)"><g><path d="M 15.125 -6.328125 C 15.125 -4.785156 14.8125 -3.523438 14.1875 -2.546875 C 13.5625 -1.578125 12.71875 -0.867188 11.65625 -0.421875 C 10.601562 0.0234375 9.425781 0.25 8.125 0.25 C 6.832031 0.25 5.65625 0.0234375 4.59375 -0.421875 C 3.53125 -0.867188 2.6875 -1.578125 2.0625 -2.546875 C 1.4375 -3.523438 1.125 -4.785156 1.125 -6.328125 C 1.125 -7.890625 1.4375 -9.148438 2.0625 -10.109375 C 2.6875 -11.078125 3.53125 -11.785156 4.59375 -12.234375 C 5.65625 -12.679688 6.832031 -12.90625 8.125 -12.90625 C 9.425781 -12.90625 10.601562 -12.679688 11.65625 -12.234375 C 12.71875 -11.785156 13.5625 -11.078125 14.1875 -10.109375 C 14.8125 -9.148438 15.125 -7.890625 15.125 -6.328125 Z M 13.359375 -6.328125 C 13.359375 -7.503906 13.117188 -8.453125 12.640625 -9.171875 C 12.171875 -9.898438 11.539062 -10.429688 10.75 -10.765625 C 9.957031 -11.097656 9.082031 -11.265625 8.125 -11.265625 C 7.164062 -11.265625 6.285156 -11.097656 5.484375 -10.765625 C 4.691406 -10.429688 4.0625 -9.898438 3.59375 -9.171875 C 3.125 -8.453125 2.890625 -7.503906 2.890625 -6.328125 C 2.890625 -5.160156 3.125 -4.210938 3.59375 -3.484375 C 4.0625 -2.753906 4.691406 -2.222656 5.484375 -1.890625 C 6.285156 -1.554688 7.164062 -1.390625 8.125 -1.390625 C 9.09375 -1.390625 9.96875 -1.554688 10.75 -1.890625 C 11.539062 -2.222656 12.171875 -2.753906 12.640625 -3.484375 C 13.117188 -4.210938 13.359375 -5.160156 13.359375 -6.328125 Z M 13.359375 -6.328125 "/></g></g></g><g fill="#f65519" fill-opacity="1"><g transform="translate(42.57754, 32.825675)"><g><path d="M 14.046875 0 L 11.859375 0 L 8.328125 -4.234375 L 3.515625 -4.234375 L 3.515625 0 L 1.75 0 L 1.75 -12.65625 L 9.46875 -12.65625 C 10.332031 -12.65625 11.109375 -12.507812 11.796875 -12.21875 C 12.492188 -11.9375 13.046875 -11.484375 13.453125 -10.859375 C 13.859375 -10.242188 14.0625 -9.441406 14.0625 -8.453125 C 14.0625 -7.160156 13.722656 -6.171875 13.046875 -5.484375 C 12.378906 -4.804688 11.523438 -4.40625 10.484375 -4.28125 Z M 9.46875 -11.015625 L 3.515625 -11.015625 L 3.515625 -5.890625 L 9.46875 -5.890625 C 10.238281 -5.890625 10.898438 -6.082031 11.453125 -6.46875 C 12.015625 -6.863281 12.296875 -7.523438 12.296875 -8.453125 C 12.296875 -9.367188 12.019531 -10.023438 11.46875 -10.421875 C 10.925781 -10.816406 10.257812 -11.015625 9.46875 -11.015625 Z M 9.46875 -11.015625 "/></g></g></g><g fill="#f65519" fill-opacity="1"><g transform="translate(59.780948, 32.825675)"><g><path d="M 12.953125 0 L 1.765625 0 L 1.765625 -12.65625 L 12.953125 -12.65625 L 12.953125 -11.015625 L 3.546875 -11.015625 L 3.546875 -7.15625 L 11.921875 -7.15625 L 11.921875 -5.5 L 3.546875 -5.5 L 3.546875 -1.640625 L 12.953125 -1.640625 Z M 12.953125 0 "/></g></g></g><g fill="#f65519" fill-opacity="1"><g transform="translate(75.719437, 32.825675)"><g><path d="M 14.390625 0 L 12.609375 0 L 3.546875 -10.234375 L 3.546875 0 L 1.765625 0 L 1.765625 -12.65625 L 3.546875 -12.65625 L 12.609375 -2.40625 L 12.609375 -12.65625 L 14.390625 -12.65625 Z M 14.390625 0 "/></g></g></g><g fill="#f65519" fill-opacity="1"><g transform="translate(93.745039, 32.825675)"><g><path d="M 7.53125 0 L 5.765625 0 L 5.765625 -11.015625 L 0.359375 -11.015625 L 0.359375 -12.65625 L 12.765625 -12.65625 L 12.765625 -11.015625 L 7.53125 -11.015625 Z M 7.53125 0 "/></g></g></g><g fill="#737373" fill-opacity="1"><g transform="translate(32.473395, 41.19934)"><g><path d="M 3.34375 -0.625 L 3.46875 -0.21875 C 3.269531 -0.132812 3.054688 -0.0664062 2.828125 -0.015625 C 2.597656 0.0351562 2.363281 0.0625 2.125 0.0625 C 1.78125 0.0625 1.46875 0.00390625 1.1875 -0.109375 C 0.914062 -0.222656 0.695312 -0.40625 0.53125 -0.65625 C 0.375 -0.914062 0.296875 -1.25 0.296875 -1.65625 C 0.296875 -2.0625 0.375 -2.390625 0.53125 -2.640625 C 0.695312 -2.890625 0.914062 -3.070312 1.1875 -3.1875 C 1.46875 -3.300781 1.78125 -3.359375 2.125 -3.359375 C 2.363281 -3.359375 2.597656 -3.332031 2.828125 -3.28125 C 3.054688 -3.238281 3.269531 -3.171875 3.46875 -3.078125 L 3.34375 -2.671875 C 3.15625 -2.753906 2.957031 -2.816406 2.75 -2.859375 C 2.539062 -2.910156 2.332031 -2.9375 2.125 -2.9375 C 1.875 -2.9375 1.644531 -2.890625 1.4375 -2.796875 C 1.226562 -2.710938 1.0625 -2.578125 0.9375 -2.390625 C 0.8125 -2.203125 0.75 -1.957031 0.75 -1.65625 C 0.75 -1.34375 0.8125 -1.09375 0.9375 -0.90625 C 1.0625 -0.71875 1.226562 -0.578125 1.4375 -0.484375 C 1.644531 -0.398438 1.875 -0.359375 2.125 -0.359375 C 2.332031 -0.359375 2.539062 -0.378906 2.75 -0.421875 C 2.957031 -0.472656 3.15625 -0.539062 3.34375 -0.625 Z M 3.34375 -0.625 "/></g></g></g><g fill="#737373" fill-opacity="1"><g transform="translate(38.077124, 41.19934)"><g><path d="M 3.5 0 L 3.109375 -0.734375 L 0.96875 -0.734375 L 0.578125 0 L 0.0625 0 L 1.828125 -3.296875 L 2.25 -3.296875 L 4 0 Z M 2.875 -1.171875 L 2.046875 -2.75 L 1.1875 -1.171875 Z M 2.875 -1.171875 "/></g></g></g><g fill="#737373" fill-opacity="1"><g transform="translate(44.0598, 41.19934)"><g><path d="M 3.65625 0 L 3.09375 0 L 2.171875 -1.109375 L 0.921875 -1.109375 L 0.921875 0 L 0.453125 0 L 0.453125 -3.296875 L 2.46875 -3.296875 C 2.695312 -3.296875 2.898438 -3.257812 3.078125 -3.1875 C 3.253906 -3.113281 3.394531 -2.992188 3.5 -2.828125 C 3.613281 -2.671875 3.671875 -2.460938 3.671875 -2.203125 C 3.671875 -1.867188 3.582031 -1.613281 3.40625 -1.4375 C 3.226562 -1.257812 3.003906 -1.148438 2.734375 -1.109375 Z M 2.46875 -2.875 L 0.921875 -2.875 L 0.921875 -1.53125 L 2.46875 -1.53125 C 2.664062 -1.53125 2.835938 -1.582031 2.984375 -1.6875 C 3.128906 -1.789062 3.203125 -1.960938 3.203125 -2.203125 C 3.203125 -2.441406 3.128906 -2.613281 2.984375 -2.71875 C 2.847656 -2.820312 2.675781 -2.875 2.46875 -2.875 Z M 2.46875 -2.875 "/></g></g></g><g fill="#737373" fill-opacity="1"><g transform="translate(49.971083, 41.19934)"><g/></g></g><g fill="#737373" fill-opacity="1"><g transform="translate(53.427468, 41.19934)"><g><path d="M 3.65625 0 L 3.09375 0 L 2.171875 -1.109375 L 0.921875 -1.109375 L 0.921875 0 L 0.453125 0 L 0.453125 -3.296875 L 2.46875 -3.296875 C 2.695312 -3.296875 2.898438 -3.257812 3.078125 -3.1875 C 3.253906 -3.113281 3.394531 -2.992188 3.5 -2.828125 C 3.613281 -2.671875 3.671875 -2.460938 3.671875 -2.203125 C 3.671875 -1.867188 3.582031 -1.613281 3.40625 -1.4375 C 3.226562 -1.257812 3.003906 -1.148438 2.734375 -1.109375 Z M 2.46875 -2.875 L 0.921875 -2.875 L 0.921875 -1.53125 L 2.46875 -1.53125 C 2.664062 -1.53125 2.835938 -1.582031 2.984375 -1.6875 C 3.128906 -1.789062 3.203125 -1.960938 3.203125 -2.203125 C 3.203125 -2.441406 3.128906 -2.613281 2.984375 -2.71875 C 2.847656 -2.820312 2.675781 -2.875 2.46875 -2.875 Z M 2.46875 -2.875 "/></g></g></g><g fill="#737373" fill-opacity="1"><g transform="translate(59.33875, 41.19934)"><g><path d="M 3.375 0 L 0.46875 0 L 0.46875 -3.296875 L 3.375 -3.296875 L 3.375 -2.875 L 0.921875 -2.875 L 0.921875 -1.859375 L 3.109375 -1.859375 L 3.109375 -1.4375 L 0.921875 -1.4375 L 0.921875 -0.421875 L 3.375 -0.421875 Z M 3.375 0 "/></g></g></g><g fill="#737373" fill-opacity="1"><g transform="translate(64.920514, 41.19934)"><g><path d="M 3.75 0 L 3.28125 0 L 0.921875 -2.671875 L 0.921875 0 L 0.46875 0 L 0.46875 -3.296875 L 0.921875 -3.296875 L 3.28125 -0.625 L 3.28125 -3.296875 L 3.75 -3.296875 Z M 3.75 0 "/></g></g></g><g fill="#737373" fill-opacity="1"><g transform="translate(71.045979, 41.19934)"><g><path d="M 1.96875 0 L 1.5 0 L 1.5 -2.875 L 0.09375 -2.875 L 0.09375 -3.296875 L 3.328125 -3.296875 L 3.328125 -2.875 L 1.96875 -2.875 Z M 1.96875 0 "/></g></g></g><g fill="#737373" fill-opacity="1"><g transform="translate(76.380608, 41.19934)"><g><path d="M 3.5 0 L 3.109375 -0.734375 L 0.96875 -0.734375 L 0.578125 0 L 0.0625 0 L 1.828125 -3.296875 L 2.25 -3.296875 L 4 0 Z M 2.875 -1.171875 L 2.046875 -2.75 L 1.1875 -1.171875 Z M 2.875 -1.171875 "/></g></g></g><g fill="#737373" fill-opacity="1"><g transform="translate(82.363282, 41.19934)"><g><path d="M 3.375 0 L 0.46875 0 L 0.46875 -3.296875 L 0.921875 -3.296875 L 0.921875 -0.421875 L 3.375 -0.421875 Z M 3.375 0 "/></g></g></g></svg>