<svg xmlns="http://www.w3.org/2000/svg" xmlns:xlink="http://www.w3.org/1999/xlink" width="500" zoomAndPan="magnify" viewBox="0 0 375 374.999991" height="500" preserveAspectRatio="xMidYMid meet" version="1.0"><defs><g/><clipPath id="06272b9682"><path d="M 25.835938 19.320312 L 349.164062 19.320312 L 349.164062 356 L 25.835938 356 Z M 25.835938 19.320312 " clip-rule="nonzero"/></clipPath><clipPath id="6eb83e2c4e"><path d="M 43.085938 19.320312 L 331.914062 19.320312 C 336.492188 19.320312 340.878906 21.140625 344.113281 24.375 C 347.347656 27.609375 349.164062 31.996094 349.164062 36.570312 L 349.164062 338.429688 C 349.164062 343.003906 347.347656 347.390625 344.113281 350.625 C 340.878906 353.859375 336.492188 355.679688 331.914062 355.679688 L 43.085938 355.679688 C 38.507812 355.679688 34.121094 353.859375 30.886719 350.625 C 27.652344 347.390625 25.835938 343.003906 25.835938 338.429688 L 25.835938 36.570312 C 25.835938 31.996094 27.652344 27.609375 30.886719 24.375 C 34.121094 21.140625 38.507812 19.320312 43.085938 19.320312 Z M 43.085938 19.320312 " clip-rule="nonzero"/></clipPath></defs><g clip-path="url(#06272b9682)"><g clip-path="url(#6eb83e2c4e)"><path fill="#f65519" d="M 25.835938 19.320312 L 349.164062 19.320312 L 349.164062 355.285156 L 25.835938 355.285156 Z M 25.835938 19.320312 " fill-opacity="1" fill-rule="nonzero"/></g></g><g fill="#ffffff" fill-opacity="1"><g transform="translate(119.336038, 152.99999)"><g><path d="M 59.09375 0 L 55.140625 0 L 53.78125 -2.78125 C 47.738281 -0.207031 41.363281 1.078125 34.65625 1.078125 C 29.09375 1.078125 24.050781 0.117188 19.53125 -1.796875 C 15.007812 -3.710938 11.414062 -6.71875 8.75 -10.8125 C 6.09375 -14.914062 4.765625 -20.257812 4.765625 -26.84375 C 4.765625 -33.550781 6.140625 -38.953125 8.890625 -43.046875 C 11.640625 -47.148438 15.332031 -50.160156 19.96875 -52.078125 C 24.613281 -53.992188 29.8125 -54.953125 35.5625 -54.953125 C 39.445312 -54.953125 43.257812 -54.546875 47 -53.734375 C 50.75 -52.929688 54.300781 -51.753906 57.65625 -50.203125 L 55.578125 -43.640625 C 49.296875 -46.515625 42.679688 -47.953125 35.734375 -47.953125 C 31.367188 -47.953125 27.40625 -47.25 23.84375 -45.84375 C 20.28125 -44.4375 17.460938 -42.175781 15.390625 -39.0625 C 13.328125 -35.945312 12.296875 -31.875 12.296875 -26.84375 C 12.296875 -21.875 13.296875 -17.832031 15.296875 -14.71875 C 17.304688 -11.613281 20.03125 -9.34375 23.46875 -7.90625 C 26.914062 -6.46875 30.738281 -5.75 34.9375 -5.75 C 40.976562 -5.75 46.8125 -6.972656 52.4375 -9.421875 L 52.4375 -23.890625 L 30.53125 -23.890625 L 30.53125 -29.984375 L 59.09375 -29.984375 Z M 59.09375 0 "/></g></g></g><g fill="#ffffff" fill-opacity="1"><g transform="translate(186.498296, 152.99999)"><g><path d="M 64.390625 -26.9375 C 64.390625 -20.351562 63.054688 -14.992188 60.390625 -10.859375 C 57.722656 -6.734375 54.144531 -3.710938 49.65625 -1.796875 C 45.164062 0.117188 40.140625 1.078125 34.578125 1.078125 C 29.066406 1.078125 24.050781 0.117188 19.53125 -1.796875 C 15.007812 -3.710938 11.414062 -6.734375 8.75 -10.859375 C 6.09375 -14.992188 4.765625 -20.351562 4.765625 -26.9375 C 4.765625 -33.582031 6.09375 -38.953125 8.75 -43.046875 C 11.414062 -47.148438 15.007812 -50.160156 19.53125 -52.078125 C 24.050781 -53.992188 29.066406 -54.953125 34.578125 -54.953125 C 40.140625 -54.953125 45.164062 -53.992188 49.65625 -52.078125 C 54.144531 -50.160156 57.722656 -47.148438 60.390625 -43.046875 C 63.054688 -38.953125 64.390625 -33.582031 64.390625 -26.9375 Z M 56.84375 -26.9375 C 56.84375 -31.96875 55.835938 -36.023438 53.828125 -39.109375 C 51.828125 -42.191406 49.132812 -44.4375 45.75 -45.84375 C 42.363281 -47.25 38.640625 -47.953125 34.578125 -47.953125 C 30.503906 -47.953125 26.773438 -47.25 23.390625 -45.84375 C 20.003906 -44.4375 17.304688 -42.191406 15.296875 -39.109375 C 13.296875 -36.023438 12.296875 -31.96875 12.296875 -26.9375 C 12.296875 -21.96875 13.296875 -17.925781 15.296875 -14.8125 C 17.304688 -11.695312 20.003906 -9.4375 23.390625 -8.03125 C 26.773438 -6.625 30.503906 -5.921875 34.578125 -5.921875 C 38.703125 -5.921875 42.441406 -6.625 45.796875 -8.03125 C 49.148438 -9.4375 51.828125 -11.695312 53.828125 -14.8125 C 55.835938 -17.925781 56.84375 -21.96875 56.84375 -26.9375 Z M 56.84375 -26.9375 "/></g></g></g><g fill="#ffffff" fill-opacity="1"><g transform="translate(61.117292, 251.999983)"><g><path d="M 59.796875 0 L 50.46875 0 L 35.46875 -18.046875 L 15 -18.046875 L 15 0 L 7.453125 0 L 7.453125 -53.875 L 40.3125 -53.875 C 43.96875 -53.875 47.273438 -53.257812 50.234375 -52.03125 C 53.203125 -50.8125 55.550781 -48.882812 57.28125 -46.25 C 59.019531 -43.613281 59.890625 -40.203125 59.890625 -36.015625 C 59.890625 -30.503906 58.453125 -26.296875 55.578125 -23.390625 C 52.710938 -20.484375 49.0625 -18.765625 44.625 -18.234375 Z M 40.3125 -46.875 L 15 -46.875 L 15 -25.046875 L 40.3125 -25.046875 C 43.601562 -25.046875 46.429688 -25.882812 48.796875 -27.5625 C 51.160156 -29.238281 52.34375 -32.054688 52.34375 -36.015625 C 52.34375 -39.898438 51.175781 -42.679688 48.84375 -44.359375 C 46.507812 -46.035156 43.664062 -46.875 40.3125 -46.875 Z M 40.3125 -46.875 "/></g></g></g><g fill="#ffffff" fill-opacity="1"><g transform="translate(127.381657, 251.999983)"><g><path d="M 55.140625 0 L 7.546875 0 L 7.546875 -53.875 L 55.140625 -53.875 L 55.140625 -46.875 L 15.078125 -46.875 L 15.078125 -30.4375 L 50.734375 -30.4375 L 50.734375 -23.4375 L 15.078125 -23.4375 L 15.078125 -7 L 55.140625 -7 Z M 55.140625 0 "/></g></g></g><g fill="#ffffff" fill-opacity="1"><g transform="translate(188.258683, 251.999983)"><g><path d="M 61.234375 0 L 53.703125 0 L 15.078125 -43.546875 L 15.078125 0 L 7.546875 0 L 7.546875 -53.875 L 15.078125 -53.875 L 53.703125 -10.234375 L 53.703125 -53.875 L 61.234375 -53.875 Z M 61.234375 0 "/></g></g></g><g fill="#ffffff" fill-opacity="1"><g transform="translate(258.024826, 251.999983)"><g><path d="M 32.0625 0 L 24.515625 0 L 24.515625 -46.875 L 1.53125 -46.875 L 1.53125 -53.875 L 54.328125 -53.875 L 54.328125 -46.875 L 32.0625 -46.875 Z M 32.0625 0 "/></g></g></g></svg>