<svg xmlns="http://www.w3.org/2000/svg" xmlns:xlink="http://www.w3.org/1999/xlink" width="512" zoomAndPan="magnify" viewBox="0 0 384 383.999986" height="512" preserveAspectRatio="xMidYMid meet" version="1.0"><defs><clipPath id="52028e4a46"><path d="M 6.523438 6.523438 L 377.773438 6.523438 L 377.773438 377.773438 L 6.523438 377.773438 Z M 6.523438 6.523438 " clip-rule="nonzero"/></clipPath></defs><g clip-path="url(#52028e4a46)"><path fill="#f65519" d="M 377.46875 192 C 377.46875 294.429688 294.429688 377.46875 192 377.46875 C 89.570312 377.46875 6.53125 294.429688 6.53125 192 C 6.53125 89.566406 89.570312 6.53125 192 6.53125 C 294.429688 6.53125 377.46875 89.566406 377.46875 192 " fill-opacity="1" fill-rule="nonzero"/></g><path fill="#ffffff" d="M 257.882812 133.367188 C 257.882812 169.886719 228.277344 199.488281 191.761719 199.488281 C 155.246094 199.488281 125.640625 169.886719 125.640625 133.367188 C 125.640625 96.851562 155.246094 67.25 191.761719 67.25 C 228.277344 67.25 257.882812 96.851562 257.882812 133.367188 " fill-opacity="1" fill-rule="nonzero"/><path fill="#ffffff" d="M 191.761719 368.664062 C 238.550781 368.664062 281.285156 351.332031 313.914062 322.746094 C 303.785156 256.605469 273.960938 210.707031 191.761719 210.707031 C 111.871094 210.707031 80.949219 256.800781 70.082031 323.167969 C 102.652344 351.503906 145.203125 368.664062 191.761719 368.664062 " fill-opacity="1" fill-rule="nonzero"/></svg>