<svg xmlns="http://www.w3.org/2000/svg" xmlns:xlink="http://www.w3.org/1999/xlink" width="500" zoomAndPan="magnify" viewBox="0 0 375 374.999991" height="500" preserveAspectRatio="xMidYMid meet" version="1.0"><defs><clipPath id="ed82df01d7"><path d="M 145.6875 142.976562 L 369.9375 142.976562 L 369.9375 367.226562 L 145.6875 367.226562 Z M 145.6875 142.976562 " clip-rule="nonzero"/></clipPath><clipPath id="cb228ef19c"><path d="M 5.105469 142.976562 L 229.308594 142.976562 L 229.308594 367.226562 L 5.105469 367.226562 Z M 5.105469 142.976562 " clip-rule="nonzero"/></clipPath><clipPath id="4289f26f01"><path d="M 112 7 L 263 7 L 263 115 L 112 115 Z M 112 7 " clip-rule="nonzero"/></clipPath><clipPath id="799511e0ff"><path d="M 187.496094 7.820312 L 262.800781 83.125 L 187.496094 158.433594 L 112.1875 83.125 Z M 187.496094 7.820312 " clip-rule="nonzero"/></clipPath><clipPath id="6f5eb7f3d3"><path d="M 187.496094 158.167969 L 112.1875 82.863281 L 187.496094 7.554688 L 262.800781 82.863281 Z M 187.496094 158.167969 " clip-rule="nonzero"/></clipPath></defs><g clip-path="url(#ed82df01d7)"><path fill="#ffbd59" d="M 369.890625 242.8125 L 369.890625 142.976562 C 246.066406 142.976562 145.6875 243.355469 145.6875 367.179688 L 245.527344 367.179688 C 245.527344 298.496094 301.207031 242.8125 369.890625 242.8125 Z M 369.890625 242.8125 " fill-opacity="1" fill-rule="nonzero"/></g><g clip-path="url(#cb228ef19c)"><path fill="#ffde59" d="M 5.105469 242.8125 L 5.105469 142.976562 C 128.929688 142.976562 229.308594 243.355469 229.308594 367.179688 L 129.472656 367.179688 C 129.472656 298.496094 73.792969 242.8125 5.105469 242.8125 Z M 5.105469 242.8125 " fill-opacity="1" fill-rule="nonzero"/></g><g clip-path="url(#4289f26f01)"><g clip-path="url(#799511e0ff)"><g clip-path="url(#6f5eb7f3d3)"><path fill="#ff914d" d="M 112.320312 82.992188 C 153.839844 124.511719 221.152344 124.511719 262.667969 82.996094 L 187.496094 7.820312 Z M 112.320312 82.992188 " fill-opacity="1" fill-rule="nonzero"/></g></g></g></svg>