<svg xmlns="http://www.w3.org/2000/svg" xmlns:xlink="http://www.w3.org/1999/xlink" width="158" zoomAndPan="magnify" viewBox="0 0 118.5 48.75" height="65" preserveAspectRatio="xMidYMid meet" version="1.0"><defs><g/><clipPath id="a74b457577"><path d="M 13.71875 18.707031 L 31.628906 18.707031 L 31.628906 36.613281 L 13.71875 36.613281 Z M 13.71875 18.707031 " clip-rule="nonzero"/></clipPath><clipPath id="0efcdb0765"><path d="M 2.671875 18.707031 L 20.289062 18.707031 L 20.289062 36.613281 L 2.671875 36.613281 Z M 2.671875 18.707031 " clip-rule="nonzero"/></clipPath><clipPath id="a90ec129f5"><path d="M 11 8 L 23 8 L 23 17 L 11 17 Z M 11 8 " clip-rule="nonzero"/></clipPath><clipPath id="6869b9f8df"><path d="M 17 8.085938 L 22.804688 13.890625 L 17 19.695312 L 11.195312 13.890625 Z M 17 8.085938 " clip-rule="nonzero"/></clipPath><clipPath id="8967e02e23"><path d="M 17 19.890625 L 11.195312 14.085938 L 17 8.285156 L 22.804688 14.085938 Z M 17 19.890625 " clip-rule="nonzero"/></clipPath></defs><g clip-path="url(#a74b457577)"><path fill="#ffbd59" d="M 31.335938 26.550781 L 31.335938 18.707031 C 21.605469 18.707031 13.71875 26.59375 13.71875 36.320312 L 21.5625 36.320312 C 21.5625 30.925781 25.9375 26.550781 31.335938 26.550781 Z M 31.335938 26.550781 " fill-opacity="1" fill-rule="nonzero"/></g><g clip-path="url(#0efcdb0765)"><path fill="#ffde59" d="M 2.671875 26.550781 L 2.671875 18.707031 C 12.402344 18.707031 20.289062 26.59375 20.289062 36.320312 L 12.445312 36.320312 C 12.445312 30.925781 8.070312 26.550781 2.671875 26.550781 Z M 2.671875 26.550781 " fill-opacity="1" fill-rule="nonzero"/></g><g clip-path="url(#a90ec129f5)"><g clip-path="url(#6869b9f8df)"><g clip-path="url(#8967e02e23)"><path fill="#ff914d" d="M 11.097656 13.988281 C 14.359375 17.25 19.644531 17.25 22.902344 13.988281 L 17 8.085938 Z M 11.097656 13.988281 " fill-opacity="1" fill-rule="nonzero"/></g></g></g><g fill="#f2b212" fill-opacity="1"><g transform="translate(35.226507, 23.98308)"><g><path d="M -0.5 -13.765625 L 3.265625 -13.765625 L 6.140625 -9.359375 L 9.015625 -13.765625 L 12.78125 -13.765625 L 7.703125 -6.171875 L 7.703125 0 L 4.578125 0 L 4.578125 -6.171875 Z M -0.5 -13.765625 "/></g></g></g><g fill="#f2b212" fill-opacity="1"><g transform="translate(47.065719, 23.98308)"><g><path d="M 1.8125 -1.015625 C 0.863281 -1.859375 0.390625 -2.941406 0.390625 -4.265625 C 0.390625 -5.585938 0.882812 -6.675781 1.875 -7.53125 C 2.863281 -8.382812 4.085938 -8.8125 5.546875 -8.8125 C 6.972656 -8.8125 8.175781 -8.378906 9.15625 -7.515625 C 10.144531 -6.660156 10.640625 -5.578125 10.640625 -4.265625 C 10.640625 -2.953125 10.160156 -1.867188 9.203125 -1.015625 C 8.242188 -0.171875 7.023438 0.25 5.546875 0.25 C 4.003906 0.25 2.757812 -0.171875 1.8125 -1.015625 Z M 4.09375 -5.71875 C 3.707031 -5.34375 3.515625 -4.859375 3.515625 -4.265625 C 3.515625 -3.679688 3.695312 -3.203125 4.0625 -2.828125 C 4.4375 -2.453125 4.925781 -2.265625 5.53125 -2.265625 C 6.101562 -2.265625 6.578125 -2.453125 6.953125 -2.828125 C 7.328125 -3.210938 7.515625 -3.691406 7.515625 -4.265625 C 7.515625 -4.859375 7.320312 -5.34375 6.9375 -5.71875 C 6.550781 -6.101562 6.082031 -6.296875 5.53125 -6.296875 C 4.957031 -6.296875 4.476562 -6.101562 4.09375 -5.71875 Z M 4.09375 -5.71875 "/></g></g></g><g fill="#f2b212" fill-opacity="1"><g transform="translate(57.654262, 23.98308)"><g><path d="M 3.78125 -8.5625 L 3.78125 -4.484375 C 3.78125 -3.640625 3.910156 -3.039062 4.171875 -2.6875 C 4.429688 -2.332031 4.863281 -2.15625 5.46875 -2.15625 C 6.082031 -2.15625 6.515625 -2.332031 6.765625 -2.6875 C 7.023438 -3.039062 7.15625 -3.640625 7.15625 -4.484375 L 7.15625 -8.5625 L 10.109375 -8.5625 L 10.109375 -3.765625 C 10.109375 -2.347656 9.738281 -1.320312 9 -0.6875 C 8.257812 -0.0625 7.082031 0.25 5.46875 0.25 C 3.851562 0.25 2.675781 -0.0625 1.9375 -0.6875 C 1.195312 -1.320312 0.828125 -2.347656 0.828125 -3.765625 L 0.828125 -8.5625 Z M 3.78125 -8.5625 "/></g></g></g><g fill="#f2b212" fill-opacity="1"><g transform="translate(68.159416, 23.98308)"><g><path d="M 1.578125 -1.0625 C 0.785156 -1.9375 0.390625 -3.003906 0.390625 -4.265625 C 0.390625 -5.535156 0.785156 -6.609375 1.578125 -7.484375 C 2.378906 -8.367188 3.398438 -8.8125 4.640625 -8.8125 C 5.773438 -8.8125 6.707031 -8.457031 7.4375 -7.75 L 7.4375 -14.34375 L 10.390625 -14.34375 L 10.390625 0 L 7.46875 0 L 7.46875 -0.96875 L 7.4375 -0.96875 C 6.707031 -0.15625 5.773438 0.25 4.640625 0.25 C 3.398438 0.25 2.378906 -0.1875 1.578125 -1.0625 Z M 4.09375 -5.71875 C 3.707031 -5.34375 3.515625 -4.859375 3.515625 -4.265625 C 3.515625 -3.679688 3.695312 -3.203125 4.0625 -2.828125 C 4.4375 -2.453125 4.925781 -2.265625 5.53125 -2.265625 C 6.101562 -2.265625 6.578125 -2.453125 6.953125 -2.828125 C 7.328125 -3.210938 7.515625 -3.691406 7.515625 -4.265625 C 7.515625 -4.859375 7.320312 -5.34375 6.9375 -5.71875 C 6.550781 -6.101562 6.082031 -6.296875 5.53125 -6.296875 C 4.957031 -6.296875 4.476562 -6.101562 4.09375 -5.71875 Z M 4.09375 -5.71875 "/></g></g></g><g fill="#f2b212" fill-opacity="1"><g transform="translate(79.11481, 23.98308)"><g><path d="M 9.65625 -3.875 L 3.453125 -3.875 C 3.453125 -3.269531 3.644531 -2.820312 4.03125 -2.53125 C 4.425781 -2.25 4.851562 -2.109375 5.3125 -2.109375 C 5.789062 -2.109375 6.164062 -2.171875 6.4375 -2.296875 C 6.71875 -2.421875 7.035156 -2.671875 7.390625 -3.046875 L 9.53125 -1.984375 C 8.632812 -0.492188 7.15625 0.25 5.09375 0.25 C 3.800781 0.25 2.691406 -0.191406 1.765625 -1.078125 C 0.847656 -1.960938 0.390625 -3.023438 0.390625 -4.265625 C 0.390625 -5.515625 0.847656 -6.582031 1.765625 -7.46875 C 2.691406 -8.363281 3.800781 -8.8125 5.09375 -8.8125 C 6.445312 -8.8125 7.546875 -8.414062 8.390625 -7.625 C 9.242188 -6.84375 9.671875 -5.722656 9.671875 -4.265625 C 9.671875 -4.066406 9.664062 -3.9375 9.65625 -3.875 Z M 3.53125 -5.5 L 6.796875 -5.5 C 6.722656 -5.945312 6.546875 -6.289062 6.265625 -6.53125 C 5.984375 -6.769531 5.617188 -6.890625 5.171875 -6.890625 C 4.679688 -6.890625 4.289062 -6.757812 4 -6.5 C 3.71875 -6.25 3.5625 -5.914062 3.53125 -5.5 Z M 3.53125 -5.5 "/></g></g></g><g fill="#f2b212" fill-opacity="1"><g transform="translate(88.736161, 23.98308)"><g><path d="M 1 0 L 1 -8.5625 L 3.953125 -8.5625 L 3.953125 -7.65625 L 3.984375 -7.65625 C 4.753906 -8.425781 5.570312 -8.8125 6.4375 -8.8125 C 7.0625 -8.8125 7.644531 -8.679688 8.1875 -8.421875 C 8.738281 -8.171875 9.148438 -7.78125 9.421875 -7.25 C 10.296875 -8.289062 11.242188 -8.8125 12.265625 -8.8125 C 13.179688 -8.8125 13.96875 -8.554688 14.625 -8.046875 C 15.28125 -7.535156 15.609375 -6.734375 15.609375 -5.640625 L 15.609375 0 L 12.65625 0 L 12.65625 -4.84375 C 12.65625 -5.300781 12.523438 -5.679688 12.265625 -5.984375 C 12.015625 -6.285156 11.640625 -6.4375 11.140625 -6.4375 C 10.710938 -6.4375 10.382812 -6.304688 10.15625 -6.046875 C 9.925781 -5.785156 9.800781 -5.472656 9.78125 -5.109375 L 9.78125 0 L 6.828125 0 L 6.828125 -4.84375 C 6.828125 -5.300781 6.703125 -5.679688 6.453125 -5.984375 C 6.203125 -6.285156 5.828125 -6.4375 5.328125 -6.4375 C 4.867188 -6.4375 4.523438 -6.296875 4.296875 -6.015625 C 4.066406 -5.734375 3.953125 -5.394531 3.953125 -5 L 3.953125 0 Z M 1 0 "/></g></g></g><g fill="#f2b212" fill-opacity="1"><g transform="translate(104.727585, 23.98308)"><g><path d="M 7.5 -8.5625 L 10.890625 -8.5625 L 4.171875 4.34375 L 0.765625 4.34375 L 3.71875 -1.328125 L -0.328125 -8.5625 L 3.078125 -8.5625 L 5.453125 -4.171875 Z M 7.5 -8.5625 "/></g></g></g><g fill="#fadf10" fill-opacity="1"><g transform="translate(39.235988, 36.49234)"><g><path d="M 0.671875 -9.25 L 4.046875 -9.25 C 4.984375 -9.25 5.742188 -9.003906 6.328125 -8.515625 C 6.910156 -8.023438 7.203125 -7.316406 7.203125 -6.390625 C 7.203125 -5.460938 6.90625 -4.734375 6.3125 -4.203125 C 5.726562 -3.679688 4.972656 -3.421875 4.046875 -3.421875 L 2.78125 -3.421875 L 2.78125 0 L 0.671875 0 Z M 2.78125 -5.109375 L 3.375 -5.109375 C 3.84375 -5.109375 4.226562 -5.203125 4.53125 -5.390625 C 4.832031 -5.585938 4.984375 -5.898438 4.984375 -6.328125 C 4.984375 -6.765625 4.832031 -7.078125 4.53125 -7.265625 C 4.226562 -7.460938 3.84375 -7.5625 3.375 -7.5625 L 2.78125 -7.5625 Z M 2.78125 -5.109375 "/></g></g></g><g fill="#fadf10" fill-opacity="1"><g transform="translate(46.409648, 36.49234)"><g><path d="M 0.671875 0 L 0.671875 -9.640625 L 2.65625 -9.640625 L 2.65625 0 Z M 0.671875 0 "/></g></g></g><g fill="#fadf10" fill-opacity="1"><g transform="translate(49.447177, 36.49234)"><g><path d="M 1.0625 -0.703125 C 0.519531 -1.296875 0.25 -2.015625 0.25 -2.859375 C 0.25 -3.710938 0.519531 -4.4375 1.0625 -5.03125 C 1.601562 -5.625 2.285156 -5.921875 3.109375 -5.921875 C 3.867188 -5.921875 4.5 -5.679688 5 -5.203125 L 5 -5.75 L 6.984375 -5.75 L 6.984375 0 L 5.015625 0 L 5.015625 -0.65625 L 5 -0.65625 C 4.5 -0.101562 3.867188 0.171875 3.109375 0.171875 C 2.285156 0.171875 1.601562 -0.117188 1.0625 -0.703125 Z M 2.75 -3.84375 C 2.488281 -3.59375 2.359375 -3.269531 2.359375 -2.875 C 2.359375 -2.476562 2.484375 -2.15625 2.734375 -1.90625 C 2.984375 -1.65625 3.304688 -1.53125 3.703125 -1.53125 C 4.097656 -1.53125 4.421875 -1.65625 4.671875 -1.90625 C 4.921875 -2.15625 5.046875 -2.476562 5.046875 -2.875 C 5.046875 -3.269531 4.914062 -3.59375 4.65625 -3.84375 C 4.394531 -4.09375 4.078125 -4.21875 3.703125 -4.21875 C 3.328125 -4.21875 3.007812 -4.09375 2.75 -3.84375 Z M 2.75 -3.84375 "/></g></g></g><g fill="#fadf10" fill-opacity="1"><g transform="translate(56.81139, 36.49234)"><g><path d="M 1.015625 -5.75 L 1.015625 -7.890625 L 2.984375 -7.890625 L 2.984375 -5.75 L 4.203125 -5.75 L 4.203125 -4.234375 L 2.984375 -4.234375 L 2.984375 -2.40625 C 2.984375 -1.875 3.132812 -1.609375 3.4375 -1.609375 C 3.507812 -1.609375 3.585938 -1.625 3.671875 -1.65625 C 3.753906 -1.6875 3.816406 -1.71875 3.859375 -1.75 L 3.9375 -1.796875 L 4.421875 -0.1875 C 3.992188 0.0507812 3.507812 0.171875 2.96875 0.171875 C 2.59375 0.171875 2.269531 0.109375 2 -0.015625 C 1.738281 -0.148438 1.535156 -0.328125 1.390625 -0.546875 C 1.253906 -0.773438 1.15625 -1.007812 1.09375 -1.25 C 1.039062 -1.488281 1.015625 -1.75 1.015625 -2.03125 L 1.015625 -4.234375 L 0.171875 -4.234375 L 0.171875 -5.75 Z M 1.015625 -5.75 "/></g></g></g><g fill="#fadf10" fill-opacity="1"><g transform="translate(60.947403, 36.49234)"><g><path d="M 1.015625 -5.75 L 1.015625 -6.96875 C 1.015625 -7.820312 1.210938 -8.503906 1.609375 -9.015625 C 2.003906 -9.535156 2.554688 -9.796875 3.265625 -9.796875 C 3.554688 -9.796875 3.835938 -9.753906 4.109375 -9.671875 C 4.390625 -9.585938 4.585938 -9.5 4.703125 -9.40625 L 4.890625 -9.28125 L 4.203125 -7.890625 C 4.023438 -7.992188 3.828125 -8.046875 3.609375 -8.046875 C 3.359375 -8.046875 3.191406 -7.960938 3.109375 -7.796875 C 3.023438 -7.628906 2.984375 -7.332031 2.984375 -6.90625 L 2.984375 -5.75 L 4.3125 -5.75 L 4.3125 -4.234375 L 2.984375 -4.234375 L 2.984375 0 L 1.015625 0 L 1.015625 -4.234375 L 0.171875 -4.234375 L 0.171875 -5.75 Z M 1.015625 -5.75 "/></g></g></g><g fill="#fadf10" fill-opacity="1"><g transform="translate(64.859241, 36.49234)"><g><path d="M 0.671875 0 L 0.671875 -5.75 L 2.65625 -5.75 L 2.65625 -4.921875 L 2.671875 -4.921875 C 2.691406 -4.953125 2.71875 -4.988281 2.75 -5.03125 C 2.78125 -5.070312 2.851562 -5.148438 2.96875 -5.265625 C 3.082031 -5.378906 3.203125 -5.476562 3.328125 -5.5625 C 3.453125 -5.65625 3.613281 -5.738281 3.8125 -5.8125 C 4.019531 -5.882812 4.226562 -5.921875 4.4375 -5.921875 C 4.65625 -5.921875 4.867188 -5.890625 5.078125 -5.828125 C 5.285156 -5.765625 5.4375 -5.703125 5.53125 -5.640625 L 5.6875 -5.5625 L 4.859375 -3.875 C 4.617188 -4.082031 4.273438 -4.1875 3.828125 -4.1875 C 3.585938 -4.1875 3.378906 -4.132812 3.203125 -4.03125 C 3.035156 -3.925781 2.914062 -3.796875 2.84375 -3.640625 C 2.78125 -3.492188 2.734375 -3.367188 2.703125 -3.265625 C 2.671875 -3.160156 2.65625 -3.082031 2.65625 -3.03125 L 2.65625 0 Z M 0.671875 0 "/></g></g></g><g fill="#fadf10" fill-opacity="1"><g transform="translate(70.149782, 36.49234)"><g><path d="M 1.203125 -0.671875 C 0.566406 -1.242188 0.25 -1.972656 0.25 -2.859375 C 0.25 -3.753906 0.582031 -4.488281 1.25 -5.0625 C 1.914062 -5.632812 2.738281 -5.921875 3.71875 -5.921875 C 4.6875 -5.921875 5.5 -5.628906 6.15625 -5.046875 C 6.8125 -4.472656 7.140625 -3.742188 7.140625 -2.859375 C 7.140625 -1.984375 6.816406 -1.257812 6.171875 -0.6875 C 5.523438 -0.113281 4.707031 0.171875 3.71875 0.171875 C 2.6875 0.171875 1.847656 -0.109375 1.203125 -0.671875 Z M 2.75 -3.84375 C 2.488281 -3.59375 2.359375 -3.269531 2.359375 -2.875 C 2.359375 -2.476562 2.484375 -2.15625 2.734375 -1.90625 C 2.984375 -1.65625 3.304688 -1.53125 3.703125 -1.53125 C 4.097656 -1.53125 4.421875 -1.65625 4.671875 -1.90625 C 4.921875 -2.15625 5.046875 -2.476562 5.046875 -2.875 C 5.046875 -3.269531 4.914062 -3.59375 4.65625 -3.84375 C 4.394531 -4.09375 4.078125 -4.21875 3.703125 -4.21875 C 3.328125 -4.21875 3.007812 -4.09375 2.75 -3.84375 Z M 2.75 -3.84375 "/></g></g></g><g fill="#fadf10" fill-opacity="1"><g transform="translate(77.267402, 36.49234)"><g><path d="M 0.671875 0 L 0.671875 -5.75 L 2.65625 -5.75 L 2.65625 -5.140625 L 2.671875 -5.140625 C 3.191406 -5.660156 3.742188 -5.921875 4.328125 -5.921875 C 4.742188 -5.921875 5.132812 -5.832031 5.5 -5.65625 C 5.863281 -5.488281 6.140625 -5.222656 6.328125 -4.859375 C 6.910156 -5.566406 7.546875 -5.921875 8.234375 -5.921875 C 8.847656 -5.921875 9.375 -5.75 9.8125 -5.40625 C 10.25 -5.0625 10.46875 -4.519531 10.46875 -3.78125 L 10.46875 0 L 8.484375 0 L 8.484375 -3.25 C 8.484375 -3.550781 8.398438 -3.804688 8.234375 -4.015625 C 8.066406 -4.222656 7.816406 -4.328125 7.484375 -4.328125 C 7.191406 -4.328125 6.96875 -4.238281 6.8125 -4.0625 C 6.664062 -3.882812 6.582031 -3.671875 6.5625 -3.421875 L 6.5625 0 L 4.578125 0 L 4.578125 -3.25 C 4.578125 -3.550781 4.492188 -3.804688 4.328125 -4.015625 C 4.160156 -4.222656 3.910156 -4.328125 3.578125 -4.328125 C 3.265625 -4.328125 3.03125 -4.226562 2.875 -4.03125 C 2.726562 -3.84375 2.65625 -3.617188 2.65625 -3.359375 L 2.65625 0 Z M 0.671875 0 "/></g></g></g></svg>